<?xml version="1.0" standalone="no"?>
<!DOCTYPE svg PUBLIC "-//W3C//DTD SVG 20010904//EN"
 "http://www.w3.org/TR/2001/REC-SVG-20010904/DTD/svg10.dtd">
<svg version="1.0" xmlns="http://www.w3.org/2000/svg"
 width="512.000000pt" height="512.000000pt" viewBox="0 0 512.000000 512.000000"
 preserveAspectRatio="xMidYMid meet">

<g transform="translate(0.000000,512.000000) scale(0.100000,-0.100000)"
fill="#000000" stroke="none">
<path d="M230 5111 c-83 -26 -159 -90 -201 -171 l-24 -45 0 -2330 0 -2330 24
-45 c32 -61 86 -116 146 -148 l50 -27 2335 0 2335 0 50 27 c60 32 114 87 146
148 l24 45 0 2330 0 2330 -29 53 c-34 60 -85 111 -148 144 l-43 23 -2320 2
c-1276 1 -2331 -2 -2345 -6z m2615 -952 c590 -98 1102 -556 1271 -1137 77
-267 84 -566 19 -839 -127 -536 -537 -980 -1067 -1158 -313 -104 -703 -104
-1016 0 -251 84 -443 204 -638 399 -236 237 -373 491 -445 826 -20 90 -23 135
-23 315 0 180 3 225 23 315 72 335 209 589 445 826 387 386 885 544 1431 453z"/>
<path d="M2666 3459 c-227 -33 -454 -150 -639 -328 -110 -106 -121 -126 -120
-216 2 -167 118 -380 315 -580 70 -70 98 -105 96 -120 -5 -37 -44 -30 -110 22
-159 122 -290 272 -375 428 -27 51 -55 90 -63 90 -17 0 -51 -80 -82 -194 -17
-61 -22 -105 -22 -226 -1 -158 4 -178 75 -351 11 -28 10 -37 -9 -78 -38 -81
-23 -166 36 -198 36 -19 102 -14 154 10 56 28 58 27 137 -4 331 -132 767 1
1077 329 43 46 101 116 127 156 56 83 54 95 -22 104 -128 15 -305 121 -457
272 -106 106 -224 260 -224 293 0 26 25 46 44 35 8 -4 46 -45 85 -90 206 -238
490 -392 651 -353 64 15 76 33 100 152 35 165 23 318 -35 463 l-27 67 32 64
c27 53 32 71 27 109 -12 109 -121 143 -235 73 l-32 -20 -83 36 c-132 56 -279
76 -421 55z"/>
</g>
</svg>
