<?xml version="1.0" standalone="no"?>
<!DOCTYPE svg PUBLIC "-//W3C//DTD SVG 20010904//EN"
 "http://www.w3.org/TR/2001/REC-SVG-20010904/DTD/svg10.dtd">
<svg version="1.0" xmlns="http://www.w3.org/2000/svg"
 width="1200.000000pt" height="630.000000pt" viewBox="0 0 1200.000000 630.000000"
 preserveAspectRatio="xMidYMid meet">

<g transform="translate(0.000000,630.000000) scale(0.100000,-0.100000)"
fill="#000000" stroke="none">
<path d="M5705 4430 c-529 -65 -958 -243 -1245 -517 -113 -108 -177 -192 -239
-315 -76 -150 -94 -245 -89 -460 5 -150 9 -185 32 -262 165 -547 712 -911
1506 -1002 200 -23 598 -15 784 15 258 42 446 98 645 192 382 181 635 454 738
794 26 85 27 101 28 295 0 188 -2 211 -23 280 -53 168 -152 321 -302 463 -265
252 -652 424 -1135 503 -115 18 -585 28 -700 14z m650 -85 c348 -46 682 -161
922 -317 46 -29 83 -56 83 -60 0 -13 -214 -76 -299 -88 -111 -17 -294 -8 -392
19 -41 11 -123 41 -180 65 -163 70 -236 87 -384 93 -102 4 -144 2 -195 -11
-76 -19 -171 -62 -232 -104 -28 -19 -62 -32 -98 -36 -30 -4 -95 -18 -145 -31
-142 -38 -186 -40 -310 -15 -121 24 -307 76 -399 110 l-59 22 69 45 c262 168
635 285 1034 323 131 12 440 4 585 -15z m-77 -384 c45 -12 123 -40 174 -62
197 -87 380 -119 560 -100 119 13 259 48 359 90 l68 29 82 -82 c127 -127 215
-273 255 -421 7 -27 10 -52 6 -56 -4 -3 -65 -21 -137 -39 -173 -43 -342 -98
-508 -163 l-136 -54 -173 150 c-371 321 -552 467 -625 504 -66 33 -78 35 -136
31 -81 -7 -158 -46 -282 -145 -119 -96 -174 -123 -251 -124 -58 -1 -114 17
-128 40 -9 14 250 277 316 322 118 80 227 111 378 105 52 -2 132 -14 178 -25z
m-1553 -66 c206 -73 376 -115 491 -122 88 -5 113 -2 203 21 56 14 106 26 112
26 6 0 -35 -48 -90 -107 -56 -60 -104 -119 -108 -132 -17 -66 68 -123 193
-129 103 -5 132 7 279 118 188 141 272 167 380 116 86 -40 794 -644 815 -696
7 -16 9 -41 6 -56 -14 -55 -90 -95 -151 -80 -13 3 -92 67 -175 141 -84 74
-158 135 -165 135 -39 0 -16 -33 108 -159 136 -136 163 -175 151 -215 -10 -33
-54 -74 -92 -87 -60 -20 -86 -6 -210 111 -109 104 -152 130 -152 94 0 -8 45
-65 100 -127 101 -113 112 -135 90 -178 -15 -26 -62 -49 -105 -49 -31 0 -48
11 -137 95 -93 89 -125 108 -135 79 -2 -6 33 -51 77 -100 44 -49 80 -94 80
-100 0 -34 -107 -44 -183 -18 l-48 16 8 37 c18 83 -5 168 -59 218 -28 27 -89
53 -122 53 -21 0 -25 6 -31 47 -17 113 -93 177 -206 172 -53 -2 -60 0 -80 26
-47 59 -180 86 -251 49 -28 -15 -31 -14 -52 5 -50 47 -146 55 -212 17 -37 -21
-43 -22 -60 -8 -78 60 -351 160 -621 227 -171 42 -165 36 -134 126 49 144 131
267 264 397 46 45 86 82 89 82 2 0 62 -20 133 -45z m-340 -644 c205 -50 383
-110 494 -166 l87 -43 0 -69 c-1 -59 3 -75 26 -110 31 -46 96 -83 149 -83 30
0 37 -4 47 -33 26 -71 119 -136 195 -137 30 0 44 -7 69 -36 43 -49 97 -74 160
-74 48 -1 55 -3 73 -33 25 -39 75 -74 129 -88 52 -14 136 3 173 35 l27 23 42
-18 c103 -46 205 -44 269 6 29 21 48 27 95 28 47 2 66 8 102 32 23 17 52 47
63 68 18 33 24 37 61 37 88 0 184 75 200 158 6 30 9 32 47 32 54 0 121 34 155
78 22 29 27 46 27 91 0 31 -3 65 -8 77 -6 18 5 24 130 71 191 71 537 173 587
173 34 0 10 -202 -39 -325 -174 -437 -718 -763 -1416 -850 -159 -19 -484 -20
-650 0 -738 86 -1317 457 -1449 927 -27 95 -39 268 -19 268 8 0 86 -18 174
-39z m811 -187 c34 -16 64 -58 64 -89 0 -21 3 -20 42 19 42 42 99 60 150 46
40 -11 88 -61 88 -90 0 -30 16 -32 59 -9 29 15 51 19 74 15 91 -17 131 -82
108 -178 -6 -28 -9 -53 -6 -56 2 -3 25 1 50 8 90 25 174 -34 182 -129 6 -63
-20 -109 -78 -139 -49 -25 -104 -24 -147 4 -28 19 -62 72 -62 99 0 11 -4 26
-9 34 -7 12 -14 10 -36 -8 -72 -56 -195 4 -195 95 0 28 -3 28 -66 3 -39 -16
-75 -6 -118 32 -38 33 -61 86 -53 125 6 32 -5 37 -39 19 -118 -61 -232 88
-136 177 45 42 75 47 128 22z"/>
</g>
</svg>
